# xmcd
#
# Track frame offsets: 
#        150
#        13047
#        26675
#        37462
#        49145
#        62395
#        75312
#        90865
#        106095
#        120200
#        133602
#        147097
#        159372
#        171830
#        187092
#        204525
#        215650
#        231902
#        244735
#        258572
#        272345
#        288772
#        299802
#        313275
#        328410
#
# Disc length: 4567 seconds
#
# Revision: 0
# Processed by: cddbd v1.5.2PL0 Copyright (c) Steve Scherf et al.
# Submitted via: ExactAudioCopy v1.0b3
#
DISCID=6e11d519
DTITLE=Various Artist - Piano Discoveries - Newly Found Titles and Alte
DTITLE=rnate Takes (1928-1943)
DYEAR=2008
DGENRE=Blues
TTITLE0=Ezra Howlett Shelton - Flapper's stomp
TTITLE1=Leothus 'Lee' Green - Five minute blues (15569)
TTITLE2=Charlie 'Bozo' Nickerson - What's the matter now? - part 3
TTITLE3=Charlie 'Bozo' Nickerson - What`s the matter now? - part 4
TTITLE4=Ivy Smith - That's the kind of girl I'm looking for
TTITLE5=Tampa Red - It's a pretty little thing
TTITLE6=Tampa Red - Poor old bachelor blues
TTITLE7=Little Brother Montgomery - Louisiana blues (take b-test)
TTITLE8=Walter Davis - You don't worry my mind (take 2)
TTITLE9=Leroy Carr - Church House blues (take 1)
TTITLE10=Memphis Slim - Beer drinking woman (take 2)
TTITLE11=Pete Johnson and Albert Ammons - Boogie woogie man (063861-1)
TTITLE12=Cripple Clarence Lofton - Deep end boogie
TTITLE13=Cripple Clarence Lofton - I don't know
TTITLE14=Cripple Clarence Lofton - Fine and mellow (Evie Westphal, vcl
TTITLE14=)
TTITLE15=Jimmy Yancey and Cripple Clarence Lofton - Vocal blues (C. C. L
TTITLE15=ofton, vocal)
TTITLE16=Jimmy Yancey and Cripple Clarence Lofton - Talking and piano expe
TTITLE16=riment
TTITLE17=Jimmy Yancey and Cripple Clarence Lofton - Untitled
TTITLE18=Jimmy Yancey - Boogie # a1
TTITLE19=Jimmy Yancey - Mama and Jimmy blues (Mama Yancey, vcl)
TTITLE20=Jimmy Yancey - The rocks
TTITLE21=Jimmy Yancey - Untitled blues
TTITLE22=Alonzo Yancey - Unknown rag (at party)
TTITLE23=Alonzo Yancey - Ecstatic rag
TTITLE24=Alonzo Yancey - Everybody's rag
EXTD=
EXTT0=
EXTT1=
EXTT2=
EXTT3=
EXTT4=
EXTT5=
EXTT6=
EXTT7=
EXTT8=
EXTT9=
EXTT10=
EXTT11=
EXTT12=
EXTT13=
EXTT14=
EXTT15=
EXTT16=
EXTT17=
EXTT18=
EXTT19=
EXTT20=
EXTT21=
EXTT22=
EXTT23=
EXTT24=
PLAYORDER=
